<?xml version="1.0" encoding="utf-8"?>
<!-- Generator: Adobe Illustrator 22.0.1, SVG Export Plug-In . SVG Version: 6.00 Build 0)  -->
<svg version="1.1" id="Layer_1" xmlns="http://www.w3.org/2000/svg" xmlns:xlink="http://www.w3.org/1999/xlink" x="0px" y="0px"
	 viewBox="0 0 234 230" style="enable-background:new 0 0 234 230;" xml:space="preserve">
<style type="text/css">
	.st0{fill:none;stroke:#000000;stroke-width:0.7365;stroke-miterlimit:10;}
	.st1{fill:none;stroke:#000000;stroke-width:4.1211;stroke-miterlimit:10;}
	.st2{fill:none;stroke:#000000;stroke-width:0.8443;stroke-miterlimit:10;}
	.st3{fill:none;stroke:#000000;stroke-width:1.5741;stroke-miterlimit:10;}
	.st4{fill:none;stroke:#000000;stroke-width:1.6484;stroke-miterlimit:10;}
	.st5{fill:none;stroke:#000000;stroke-width:7.3646;stroke-miterlimit:10;}
	.st6{display:none;}
	.st7{display:inline;fill:#6D6E71;}
	.st8{display:none;fill:none;stroke:#6D6E71;stroke-width:2.2228;stroke-miterlimit:10;}
</style>
<g>
	<path class="st0" d="M118.2,221.5c-58.8,0-106.5-47.7-106.5-106.5C11.6,56.1,59.3,8.4,118.2,8.4c58.8,0,106.5,47.7,106.5,106.6
		C224.7,173.8,177,221.5,118.2,221.5z"/>
	<path class="st1" d="M177.3,162.3c-13.8,16.8-34.8,27.6-58.2,27.6c-41.6,0-75.3-33.7-75.3-75.3c0-7.6,1.1-14.9,3.2-21.7"/>
	<path class="st1" d="M90.5,44.9c8.8-3.6,18.4-5.6,28.5-5.6c41.6,0,75.3,33.7,75.3,75.3"/>
	<path class="st2" d="M182.9,162.6c-14.6,19.5-37.9,32.2-64.1,32.2c-44.2,0-79.9-35.8-79.9-79.9c0-8.6,1.4-16.9,3.9-24.7"/>
	<path class="st2" d="M87.6,41.3c9.6-4.1,20.1-6.3,31.2-6.3c44.1,0,79.9,35.8,79.9,79.9c0,0.9,0,1.8,0,2.7"/>
	<path class="st3" d="M63,97c-18.4,0-33.3-14.9-33.3-33.3c0-18.4,14.9-33.3,33.3-33.3c18.4,0,33.3,14.9,33.3,33.3
		C96.3,82.1,81.4,97,63,97z"/>
	<path class="st3" d="M63,80c-9,0-16.3-7.3-16.3-16.3c0-9,7.3-16.3,16.3-16.3c9,0,16.3,7.3,16.3,16.3C79.3,72.7,72,80,63,80z"/>
	<path class="st1" d="M182.6,163.1c-14,0-25.3-11.3-25.3-25.3c0-13.9,11.3-25.3,25.3-25.3c14,0,25.3,11.3,25.3,25.3
		C207.9,151.8,196.6,163.1,182.6,163.1z"/>
	<path class="st4" d="M182.6,158.7c-11.5,0-20.9-9.3-20.9-20.9c0-11.5,9.4-20.9,20.9-20.9c11.5,0,20.9,9.3,20.9,20.9
		C203.5,149.4,194.2,158.7,182.6,158.7z"/>
	<path class="st5" d="M118.4,221.5c-58.8,0-106.5-47.7-106.5-106.5C11.8,56.1,59.5,8.4,118.4,8.4c58.8,0,106.6,47.7,106.6,106.6
		C224.9,173.8,177.2,221.5,118.4,221.5z"/>
	<path class="st5" d="M117.6,207.7c-51.3,0-92.8-41.5-92.8-92.8c0-51.3,41.5-92.8,92.8-92.8c51.2,0,92.8,41.5,92.8,92.8
		C210.4,166.2,168.9,207.7,117.6,207.7z"/>
	<line class="st4" x1="90.7" y1="132.3" x2="55" y2="154.2"/>
	<path class="st4" d="M90.7,132.3"/>
	<line class="st4" x1="183.4" y1="75.6" x2="148.8" y2="96.8"/>
	<path class="st1" d="M119.8,148.7c-18.8,0-34.1-15.3-34.1-34.1c0-18.8,15.3-34.1,34.1-34.1c18.8,0,34.1,15.3,34.1,34.1
		C153.9,133.5,138.7,148.7,119.8,148.7z"/>
</g>
<g class="st6">
	<path class="st7" d="M304,384.6c6,4.6,9.9,10.6,9.9,20.9c0,12-7.1,25.5-24.4,25.5H284v-68h16.2c6.8,0,10.3,4.5,10.3,9.1
		c0,3.8-2,6.8-5,10.5L304,384.6z M289,369v26.3l13.1-16c1.6-2,2.7-4.3,2.7-6.3c0-2.1-1.3-4-5.4-4H289z M291.1,425
		c7.8,0,16.9-6.9,16.9-19.7c0-8.7-3.5-13.3-7.6-16.1L289,403v22H291.1z"/>
</g>
<g class="st6">
	<path class="st7" d="M368,363h6v68h-6V363z"/>
</g>
<g class="st6">
	<path class="st7" d="M435,363h19v6h-13v10h9v6h-9v40h13v6h-19V363z"/>
</g>
<g class="st6">
	<path class="st7" d="M541,363v68h-5v-37.2l-18-20.5V431h-5v-68h5.2l17.8,22.1V363H541z"/>
</g>
<g class="st6">
	<path class="st7" d="M615,369v62h-6v-62h-11v-6h29v6H615z"/>
</g>
<g class="st6">
	<path class="st7" d="M710,363h6v68h-6V363z"/>
</g>
<g class="st6">
	<path class="st7" d="M788,369v62h-5v-62h-12v-6h29v6H788z"/>
</g>
<g class="st6">
	<path class="st7" d="M222,363v68h-6v-57.5L202,394l-14-20.4V431h-6v-68h6.6l13.9,19.9l13.9-19.9H222z"/>
</g>
<g class="st6">
	<path class="st7" d="M117.3,420.6l-15.5-16.8L96.6,431h-5.5l13.1-65h6.9l13.9,65h-5.7L117.3,420.6z M115.4,410.7l-7.6-37l-4.6,23.7
		L115.4,410.7z"/>
</g>
<path class="st8" d="M670.4,400.7c0,3.6-2.9,6.4-6.4,6.4c-3.5,0-6.4-2.9-6.4-6.4c0-3.5,2.9-6.4,6.4-6.4
	C667.6,394.3,670.4,397.1,670.4,400.7z"/>
</svg>
